<?xml version="1.0" encoding="utf-8"?>
<!-- Generator: Adobe Illustrator 16.0.0, SVG Export Plug-In . SVG Version: 6.00 Build 0)  -->
<!DOCTYPE svg PUBLIC "-//W3C//DTD SVG 1.1//EN" "http://www.w3.org/Graphics/SVG/1.1/DTD/svg11.dtd">
<svg version="1.1" id="Layer_1" xmlns="http://www.w3.org/2000/svg" xmlns:xlink="http://www.w3.org/1999/xlink" x="0px" y="0px"
	 width="960px" height="560px" viewBox="0 0 960 560" enable-background="new 0 0 960 560" xml:space="preserve">
<g>
	<path fill="#654321" stroke="#000000" stroke-miterlimit="10" d="M468.5,499.295c0,2.322-1.883,4.205-4.207,4.205h-21.587
		c-2.323,0-4.207-1.883-4.207-4.205v-43.59c0-2.322,1.883-4.205,4.207-4.205h21.587c2.323,0,4.207,1.883,4.207,4.205V499.295z"/>
	<path fill="#27770A" stroke="#000000" stroke-miterlimit="10" d="M575.67,429.238c0,13.665-24.703,24.728-55.23,24.728
		c0,12.743-28.23,23.063-63.121,23.063c-35.76,0-65.14-10.32-65.14-23.063c-30.53,0-55.679-11.063-55.679-24.728v1.236
		c-30,0-62.233-15.975-62.233-28.975h-1.184c101.177,0,182.417-120.587,182.417-267.24v1.234
		c0,146.657,82.277,266.006,181.714,266.006h1.578c0,13-28.23,29.318-63.122,29.318"/>
	<path fill="#379311" d="M630.62,401.525c0,9.573-26.366,20.642-59.571,20.642l-0.302-1.272c0,9.69-23.561,17.539-52.612,17.539
		c0,9.04-26.977,16.359-60.171,16.359c-34.032,0-64.37-7.319-64.37-16.359c-29.052,0-55.593-7.849-55.593-17.539v0.873
		c-25,0-57.08-10.669-57.08-20.242l0.832,6.836c0,9.572,31.248,20.247,58.248,20.247v-0.877c0,9.691,26.46,17.539,55.511,17.539
		c0,9.038,29.215,16.357,63.245,16.357c33.194,0,60.693-3.67,60.693-16.357c29.05,0,52.872-7.848,52.872-17.539l0.438,1.274
		c33.2,0,59.633-11.072,59.633-20.645L630.62,401.525z"/>
	<path fill="none" stroke="#000000" stroke-miterlimit="10" d="M575.67,429.238c0,13.665-24.703,24.728-55.23,24.728
		c0,12.743-28.23,23.063-63.121,23.063c-35.76,0-65.14-10.32-65.14-23.063c-30.53,0-55.679-11.063-55.679-24.728v1.236
		c-30,0-62.233-15.975-62.233-28.975h-1.184c101.177,0,182.417-120.587,182.417-267.24v1.234
		c0,146.657,82.277,266.006,181.714,266.006h1.578c0,13-28.23,29.318-63.122,29.318"/>
	<path fill="#27770A" stroke="#000000" stroke-miterlimit="10" d="M562.283,393.622c0,11.598-21.891,20.985-48.946,20.985
		c0,10.813-25.02,19.572-55.942,19.572c-31.696,0-56.139-8.76-56.139-19.572c-27.059,0-47.755-9.388-47.755-20.985v1.051
		c-31,0-58.335-12.173-58.335-27.173h-1.049c89.669,0,161.385-99.755,161.385-224.211v1.048
		c0,124.459,73.203,223.164,161.326,223.164h1.401c0,15-25.021,26.17-55.944,26.17"/>
	<path fill="#379311" d="M612.302,366.402c0,8.214-23.454,17.712-52.995,17.712l-0.271-1.093c0,8.314-20.96,15.045-46.806,15.045
		c0,7.757-24.001,14.033-53.528,14.033c-30.277,0-56.258-6.276-56.258-14.033c-25.844,0-48.443-6.73-48.443-15.045v0.749
		c-24,0-51.793-9.154-51.793-17.368l1.357,5.869c0,8.209,26.436,17.366,52.436,17.366v-0.752c0,8.316,22.418,15.05,48.258,15.05
		c0,7.752,25.432,14.032,55.706,14.032c29.536,0,53.717-3.151,53.717-14.032c25.845,0,46.891-6.733,46.891-15.05l0.324,1.094
		c29.536,0,53.018-9.499,53.018-17.708L612.302,366.402z"/>
	<path fill="none" stroke="#000000" stroke-miterlimit="10" d="M562.283,393.622c0,11.598-21.891,20.985-48.946,20.985
		c0,10.813-25.02,19.572-55.942,19.572c-31.696,0-56.139-8.76-56.139-19.572c-27.059,0-47.755-9.388-47.755-20.985v1.051
		c-31,0-58.335-12.173-58.335-27.173h-1.049c89.669,0,161.385-99.755,161.385-224.211v1.048
		c0,124.459,73.203,223.164,161.326,223.164h1.401c0,15-25.021,26.17-55.944,26.17"/>
	<path fill="#27770A" stroke="#000000" stroke-miterlimit="10" d="M553.213,356.538c0,10.658-20.121,19.286-44.99,19.286
		c0,9.94-22.994,17.989-51.416,17.989c-29.129,0-52.007-8.049-52.007-17.989c-24.869,0-44.3-8.628-44.3-19.286v0.964
		c-29,0-52.801-12.002-52.801-25.002h-0.965c82.416,0,148.766-91.66,148.766-206.049v0.963
		c0,114.395,66.849,205.086,147.844,205.086h1.287c0,13-22.997,24.068-51.418,24.068"/>
	<path fill="#379311" d="M584.662,331.147c0,7.075-20.197,15.255-45.641,15.255l-0.234-0.941c0,7.158-18.051,12.957-40.31,12.957
		c0,6.681-20.669,12.085-46.102,12.085c-26.076,0-48.549-5.404-48.549-12.085c-22.26,0-41.826-5.799-41.826-12.957v0.646
		c-19,0-44.504-7.885-44.504-14.96l2.257,5.056c0,7.068,23.247,14.955,46.247,14.955v-0.646c0,7.16,18.274,12.962,40.526,12.962
		c0,6.675,21.382,12.084,47.457,12.084c25.435,0,46.002-2.715,46.002-12.084c22.258,0,40.255-5.802,40.255-12.962l0.214,0.941
		c25.438,0,45.628-8.182,45.628-15.25L584.662,331.147z"/>
	<path fill="none" stroke="#000000" stroke-miterlimit="10" d="M553.213,356.538c0,10.658-20.121,19.286-44.99,19.286
		c0,9.94-22.994,17.989-51.416,17.989c-29.129,0-52.007-8.049-52.007-17.989c-24.869,0-44.3-8.628-44.3-19.286v0.964
		c-29,0-52.801-12.002-52.801-25.002h-0.965c82.416,0,148.766-91.66,148.766-206.049v0.963
		c0,114.395,66.849,205.086,147.844,205.086h1.287c0,13-22.997,24.068-51.418,24.068"/>
	<path fill="#27770A" stroke="#000000" stroke-miterlimit="10" d="M542.949,320.285c0,9.487-17.911,17.168-40.044,17.168
		c0,8.848-20.467,16.013-45.767,16.013c-25.927,0-45.749-7.165-45.749-16.013c-22.138,0-38.89-7.681-38.89-17.168v0.859
		c-25,0-48.082-9.645-48.082-21.645h-0.859c73.359,0,131.94-82.195,131.94-184.014v0.857c0,101.822,59.977,183.157,132.072,183.157
		h1.143c0,12-20.466,21.119-45.766,21.119"/>
	<path fill="#379311" d="M570.949,298.364c0,5.74-17.496,12.376-39.532,12.376l-0.2-0.762c0,5.81-15.637,10.512-34.917,10.512
		c0,5.421-17.904,9.808-39.934,9.808c-22.584,0-43.093-4.387-43.093-9.808c-19.282,0-37.273-4.702-37.273-10.512v0.523
		c-16,0-37.505-6.397-37.505-12.138l1.199,4.1c0,5.737,20.307,12.137,39.307,12.137v-0.523c0,5.808,17.101,10.513,36.378,10.513
		c0,5.419,19.161,9.808,41.744,9.808c22.03,0,40.163-2.203,40.163-9.808c19.277,0,35.031-4.705,35.031-10.513l0.265,0.764
		c22.035,0,39.561-6.64,39.561-12.377L570.949,298.364z"/>
	<path fill="none" stroke="#000000" stroke-miterlimit="10" d="M542.949,320.285c0,9.487-17.911,17.168-40.044,17.168
		c0,8.848-20.467,16.013-45.767,16.013c-25.927,0-45.749-7.165-45.749-16.013c-22.138,0-38.89-7.681-38.89-17.168v0.859
		c-25,0-48.082-9.645-48.082-21.645h-0.859c73.359,0,131.94-82.195,131.94-184.014v0.857c0,101.822,59.977,183.157,132.072,183.157
		h1.143c0,12-20.466,21.119-45.766,21.119"/>
	<path fill="#27770A" stroke="#000000" stroke-miterlimit="10" d="M533.005,286.699c0,8.45-15.952,15.291-35.669,15.291
		c0,7.883-18.232,14.266-40.766,14.266c-23.097,0-41.592-6.383-41.592-14.266c-19.716,0-35.478-6.841-35.478-15.291v0.765
		c-20,0-41.155-8.964-41.155-18.964h-0.764c65.345,0,117.919-73.532,117.919-164.23v0.764c0,90.7,53.035,163.467,117.257,163.467
		h1.018c0,10-18.233,18.651-40.77,18.651"/>
	<path fill="#379311" d="M549.557,265.532c0,5.442-14.143,11.735-31.952,11.735l-0.161-0.725c0,5.51-12.639,9.971-28.223,9.971
		c0,5.138-14.469,9.3-32.274,9.3c-18.253,0-34.33-4.162-34.33-9.3c-15.582,0-29.617-4.461-29.617-9.971v0.498
		c-14,0-30.817-6.065-30.817-11.508l0.51,3.885c0,5.443,16.308,11.51,31.308,11.51v-0.497c0,5.509,14.029,9.971,29.61,9.971
		c0,5.138,15.589,9.298,33.842,9.298c17.805,0,32.513-2.088,32.513-9.298c15.583,0,28.341-4.462,28.341-9.971l0.224,0.724
		c17.808,0,31.982-6.293,31.982-11.737L549.557,265.532z"/>
	<path fill="none" stroke="#000000" stroke-miterlimit="10" d="M533.005,286.699c0,8.45-15.952,15.291-35.669,15.291
		c0,7.883-18.232,14.266-40.766,14.266c-23.097,0-41.592-6.383-41.592-14.266c-19.716,0-35.478-6.841-35.478-15.291v0.765
		c-20,0-41.155-8.964-41.155-18.964h-0.764c65.345,0,117.919-73.532,117.919-164.23v0.764c0,90.7,53.035,163.467,117.257,163.467
		h1.018c0,10-18.233,18.651-40.77,18.651"/>
	<path fill="#27770A" stroke="#000000" stroke-miterlimit="10" d="M524.986,259.112c0,7.499-14.155,13.566-31.646,13.566
		c0,6.995-16.177,12.656-36.171,12.656c-20.49,0-36.544-5.661-36.544-12.656c-17.493,0-31.124-6.067-31.124-13.566v0.68
		c-21,0-37.22-8.292-37.22-15.292h-0.678c57.976,0,103.898-66.773,103.898-147.241v0.678c0,80.469,47.774,146.563,104.752,146.563
		h0.903c0,7-16.177,15.781-36.169,15.781"/>
	<path fill="#379311" d="M540.557,241.932c0,4.902-13.026,10.571-29.436,10.571l-0.151-0.652c0,4.962-11.641,8.981-25.997,8.981
		c0,4.629-13.33,8.378-29.733,8.378c-16.815,0-31.287-3.749-31.287-8.378c-14.356,0-26.952-4.02-26.952-8.981v0.447
		c-12,0-28.725-5.463-28.725-10.366l1.176,3.5c0,4.902,15.549,10.368,29.549,10.368v-0.448c0,4.963,12.049,8.982,26.404,8.982
		c0,4.627,13.923,8.375,30.738,8.375c16.405,0,29.737-1.878,29.737-8.375c14.354,0,25.996-4.019,25.996-8.982l0.152,0.651
		c16.407,0,29.436-5.669,29.436-10.571L540.557,241.932z"/>
	<path fill="none" stroke="#000000" stroke-miterlimit="10" d="M524.986,259.112c0,7.499-14.155,13.566-31.646,13.566
		c0,6.995-16.177,12.656-36.171,12.656c-20.49,0-36.544-5.661-36.544-12.656c-17.493,0-31.124-6.067-31.124-13.566v0.68
		c-21,0-37.22-8.292-37.22-15.292h-0.678c57.976,0,103.898-66.773,103.898-147.241v0.678c0,80.469,47.774,146.563,104.752,146.563
		h0.903c0,7-16.177,15.781-36.169,15.781"/>
	<path fill="#27770A" stroke="#000000" stroke-miterlimit="10" d="M517.784,227.805c0,6.762-12.766,12.234-28.539,12.234
		c0,6.309-14.589,11.415-32.621,11.415c-18.479,0-33.008-5.106-33.008-11.415c-15.776,0-28.116-5.473-28.116-12.234v0.613
		c-17,0-33.471-6.918-33.471-15.918h-0.612c52.288,0,94.083-58.093,94.083-130.664v0.61c0,72.573,42.704,130.054,94.092,130.054
		h0.815c0,9-14.589,15.298-32.623,15.298"/>
	<path fill="#379311" d="M538.412,210.011c0,4.46-12.281,9.618-27.751,9.618l-0.141-0.594c0,4.514-10.976,8.169-24.509,8.169
		c0,4.211-12.568,7.622-28.032,7.622c-15.853,0-30.035-3.411-30.035-7.622c-13.534,0-25.944-3.656-25.944-8.169v0.406
		c-11,0-26.543-4.97-26.543-9.43l0.896,3.185c0,4.459,14.646,9.432,27.646,9.432v-0.409c0,4.515,11.84,8.171,25.372,8.171
		c0,4.211,13.366,7.62,29.22,7.62c15.462,0,28.153-1.709,28.153-7.62c13.531,0,24.569-3.656,24.569-8.171l0.173,0.593
		c15.466,0,27.767-5.157,27.767-9.616L538.412,210.011z"/>
	<path fill="none" stroke="#000000" stroke-miterlimit="10" d="M517.784,227.805c0,6.762-12.766,12.234-28.539,12.234
		c0,6.309-14.589,11.415-32.621,11.415c-18.479,0-33.008-5.106-33.008-11.415c-15.776,0-28.116-5.473-28.116-12.234v0.613
		c-17,0-33.471-6.918-33.471-15.918h-0.612c52.288,0,94.083-58.093,94.083-130.664v0.61c0,72.573,42.704,130.054,94.092,130.054
		h0.815c0,9-14.589,15.298-32.623,15.298"/>
	<path fill="#27770A" stroke="#000000" stroke-miterlimit="10" d="M511.213,197.18c0,5.991-11.312,10.841-25.292,10.841
		c0,5.591-12.929,10.116-28.911,10.116c-16.376,0-28.921-4.525-28.921-10.116c-13.982,0-24.589-4.85-24.589-10.841v0.542
		c-17,0-30.324-5.222-30.324-13.222h-0.542c46.337,0,82.866-52.369,82.866-116.687v0.542c0,64.317,38.362,116.145,83.901,116.145
		h0.723c0,8-12.929,13.116-28.911,13.116"/>
	<path fill="#379311" d="M516.392,179.796c0,3.438-9.471,7.414-21.396,7.414l-0.11-0.458c0,3.481-8.46,6.298-18.896,6.298
		c0,3.247-9.688,5.877-21.612,5.877c-12.221,0-22.762-2.63-22.762-5.877c-10.436,0-19.614-2.817-19.614-6.298v0.315
		c-12,0-20.855-3.833-20.855-7.271l0.615,2.455c0,3.438,8.24,7.272,21.24,7.272v-0.314c0,3.481,9.007,6.3,19.439,6.3
		c0,3.245,10.247,5.875,22.473,5.875c11.921,0,21.674-1.318,21.674-5.875c10.431,0,18.927-2.819,18.927-6.3l0.123,0.456
		c11.929,0,21.406-3.976,21.406-7.414L516.392,179.796z"/>
	<path fill="none" stroke="#000000" stroke-miterlimit="10" d="M511.213,197.18c0,5.991-11.312,10.841-25.292,10.841
		c0,5.591-12.929,10.116-28.911,10.116c-16.376,0-28.921-4.525-28.921-10.116c-13.982,0-24.589-4.85-24.589-10.841v0.542
		c-17,0-30.324-5.222-30.324-13.222h-0.542c46.337,0,82.866-52.369,82.866-116.687v0.542c0,64.317,38.362,116.145,83.901,116.145
		h0.723c0,8-12.929,13.116-28.911,13.116"/>
	<path fill="#27770A" stroke="#000000" stroke-miterlimit="10" d="M501.649,168.247c0,4.912-9.273,8.885-20.732,8.885
		c0,4.583-10.597,8.292-23.697,8.292c-13.426,0-24.137-3.709-24.137-8.292c-11.461,0-20.583-3.974-20.583-8.885v0.443
		c-13,0-24-6.19-24-12.19h-0.444c37.984,0,67.444-41.574,67.444-94.294v0.443c0,52.721,31.927,93.851,69.256,93.851h0.591
		c0,6-10.599,11.426-23.697,11.426"/>
	<path fill="#379311" d="M502.752,152.614c0,3.163-7.127,6.819-16.1,6.819l-0.082-0.42c0,3.201-6.367,5.794-14.221,5.794
		c0,2.986-7.289,5.404-16.262,5.404c-9.198,0-16.729-2.418-16.729-5.404c-7.853,0-14.358-2.593-14.358-5.794v0.29
		c-9,0-16.093-3.525-16.093-6.688l0.287,2.259c0,3.161,6.806,6.687,15.806,6.687v-0.291c0,3.203,6.756,5.796,14.606,5.796
		c0,2.984,7.697,5.401,16.895,5.401c8.968,0,16.303-1.211,16.303-5.401c7.85,0,14.239-2.593,14.239-5.796l0.096,0.422
		c8.973,0,16.104-3.658,16.104-6.818L502.752,152.614z"/>
	<path fill="none" stroke="#000000" stroke-miterlimit="10" d="M501.649,168.247c0,4.912-9.273,8.885-20.732,8.885
		c0,4.583-10.597,8.292-23.697,8.292c-13.426,0-24.137-3.709-24.137-8.292c-11.461,0-20.583-3.974-20.583-8.885v0.443
		c-13,0-24-6.19-24-12.19h-0.444c37.984,0,67.444-41.574,67.444-94.294v0.443c0,52.721,31.927,93.851,69.256,93.851h0.591
		c0,6-10.599,11.426-23.697,11.426"/>
	<path fill="#27770A" stroke="#000000" stroke-miterlimit="10" d="M491.696,134.647c0,3.875-7.317,7.011-16.357,7.011
		c0,3.617-8.362,6.542-18.696,6.542c-10.591,0-19.976-2.925-19.976-6.542c-9.039,0-17.167-3.135-17.167-7.011v0.35
		c-9,0-17.071-3.498-17.071-9.498h-0.352c29.967,0,53.422-32.919,53.422-74.511v0.35c0,41.593,24.974,74.161,54.423,74.161h0.47
		c0,6-8.361,8.955-18.696,8.955"/>
	<path fill="#379311" d="M493.199,122.029c0,3.12-5.671,6.73-12.811,6.73l-0.066-0.415c0,3.158-5.066,5.717-11.314,5.717
		c0,2.947-5.801,5.333-12.938,5.333c-7.319,0-14.479-2.386-14.479-5.333c-6.247,0-12.592-2.559-12.592-5.717v0.284
		c-4,0-11.637-3.48-11.637-6.6l-0.354,2.229c0,3.121,7.991,6.6,11.991,6.6v-0.286c0,3.161,6.541,5.718,12.791,5.718
		c0,2.946,6.707,5.333,14.025,5.333c7.137,0,13.263-1.198,13.263-5.333c6.246,0,11.476-2.557,11.476-5.718l0.147,0.417
		c7.14,0,12.85-3.61,12.85-6.731L493.199,122.029z"/>
	<path fill="none" stroke="#000000" stroke-miterlimit="10" d="M491.696,134.647c0,3.875-7.317,7.011-16.357,7.011
		c0,3.617-8.362,6.542-18.696,6.542c-10.591,0-19.976-2.925-19.976-6.542c-9.039,0-17.167-3.135-17.167-7.011v0.35
		c-9,0-17.071-3.498-17.071-9.498h-0.352c29.967,0,53.422-32.919,53.422-74.511v0.35c0,41.593,24.974,74.161,54.423,74.161h0.47
		c0,6-8.361,8.955-18.696,8.955"/>
	<polygon fill="#F2FF40" stroke="#000000" stroke-miterlimit="10" points="470.013,57.476 456.311,50.575 442.857,57.95 
		445.186,42.785 434.016,32.269 449.156,29.798 455.708,15.923 462.736,29.562 477.954,31.502 467.156,42.401 	"/>
	<path fill="#379311" d="M441.565,107.408c8.982-10.714,13.016-24.525,13.469-39.84l-0.01,0.305
		c-0.438,14.966,6.076,29.312,15.109,40.376c0,3.328-3.599,6.021-8.05,6.021c0,2.24-2.66,4.052-5.947,4.052
		c-3.37,0-6.095-1.813-6.095-4.052C445.357,114.271,441.565,110.709,441.565,107.408z"/>
	<polyline fill="#F2FF40" stroke="#000000" stroke-miterlimit="10" points="456.311,50.575 442.857,57.95 445.186,42.785 	"/>
	<polyline fill="#F2FF40" stroke="#000000" stroke-miterlimit="10" points="449.156,29.798 455.708,15.923 462.736,29.562 	"/>
	<polygon fill="#F2FF40" points="444.442,43.192 442.379,58.395 455.7,50.786 455.851,39.68 	"/>
	<polygon fill="#FFBF00" points="467.041,43.17 477.59,32.03 462.333,30.434 455.728,39.362 	"/>
	<polygon fill="#F2FF40" points="462.366,30.371 455.463,16.669 448.789,30.483 454.951,39.723 	"/>
	<polygon fill="#FFDF00" points="449.156,29.798 434.016,32.269 445.186,42.785 455.851,39.68 	"/>
	<polygon fill="#FFDF00" points="455.833,51.523 469.685,58.123 466.497,43.116 455.966,39.588 	"/>
	<polygon fill="none" stroke="#000000" stroke-miterlimit="10" points="470.013,57.476 456.311,50.575 442.857,57.95 
		445.186,42.785 434.016,32.269 449.156,29.798 455.708,15.923 462.736,29.562 477.954,31.502 467.156,42.401 	"/>
</g>
</svg>
